<?xml version="1.0" encoding="UTF-8" standalone="no"?>
<!DOCTYPE svg PUBLIC "-//W3C//DTD SVG 1.1//EN"
 "http://www.w3.org/Graphics/SVG/1.1/DTD/svg11.dtd">
<!-- Generated by graphviz version 2.40.1 (20161225.0304)
 -->
<!-- Title: G Pages: 1 -->
<svg width="258pt" height="906pt"
 viewBox="0.00 0.00 258.00 906.00" xmlns="http://www.w3.org/2000/svg" xmlns:xlink="http://www.w3.org/1999/xlink">
<g id="graph0" class="graph" transform="scale(1 1) rotate(0) translate(4 902)">
<title>G</title>
<polygon fill="#ffffff" stroke="transparent" points="-4,4 -4,-902 254,-902 254,4 -4,4"/>
<g id="clust1" class="cluster">
<title>cluster_Global</title>
<path fill="none" stroke="#c0c0c0" d="M20,-8C20,-8 230,-8 230,-8 236,-8 242,-14 242,-20 242,-20 242,-878 242,-878 242,-884 236,-890 230,-890 230,-890 20,-890 20,-890 14,-890 8,-884 8,-878 8,-878 8,-20 8,-20 8,-14 14,-8 20,-8"/>
<text text-anchor="middle" x="125" y="-877.2" font-family="Times,serif" font-size="11.00" fill="#c0c0c0">Global</text>
</g>
<g id="clust2" class="cluster">
<title>cluster_\tomk79</title>
<path fill="none" stroke="#c0c0c0" d="M28,-16C28,-16 222,-16 222,-16 228,-16 234,-22 234,-28 234,-28 234,-850 234,-850 234,-856 228,-862 222,-862 222,-862 28,-862 28,-862 22,-862 16,-856 16,-850 16,-850 16,-28 16,-28 16,-22 22,-16 28,-16"/>
<text text-anchor="middle" x="125" y="-849.2" font-family="Times,serif" font-size="11.00" fill="#c0c0c0">tomk79</text>
</g>
<g id="clust3" class="cluster">
<title>cluster_\tomk79\pickles2</title>
<path fill="none" stroke="#c0c0c0" d="M36,-24C36,-24 214,-24 214,-24 220,-24 226,-30 226,-36 226,-36 226,-822 226,-822 226,-828 220,-834 214,-834 214,-834 36,-834 36,-834 30,-834 24,-828 24,-822 24,-822 24,-36 24,-36 24,-30 30,-24 36,-24"/>
<text text-anchor="middle" x="125" y="-821.2" font-family="Times,serif" font-size="11.00" fill="#c0c0c0">pickles2</text>
</g>
<g id="clust4" class="cluster">
<title>cluster_\tomk79\pickles2\px2dthelper</title>
<path fill="none" stroke="#c0c0c0" d="M44,-32C44,-32 206,-32 206,-32 212,-32 218,-38 218,-44 218,-44 218,-794 218,-794 218,-800 212,-806 206,-806 206,-806 44,-806 44,-806 38,-806 32,-800 32,-794 32,-794 32,-44 32,-44 32,-38 38,-32 44,-32"/>
<text text-anchor="middle" x="125" y="-793.2" font-family="Times,serif" font-size="11.00" fill="#c0c0c0">px2dthelper</text>
</g>
<!-- \\tomk79\\pickles2\\px2dthelper\\std_output -->
<g id="node1" class="node">
<title>\\tomk79\\pickles2\\px2dthelper\\std_output</title>
<polygon fill="none" stroke="#000000" points="158,-778 92,-778 92,-742 158,-742 158,-778"/>
<text text-anchor="middle" x="125" y="-757.2" font-family="Courier,monospace" font-size="11.00" fill="#000000">std_output</text>
</g>
<!-- \\tomk79\\pickles2\\px2dthelper\\fncs_init_content -->
<g id="node2" class="node">
<title>\\tomk79\\pickles2\\px2dthelper\\fncs_init_content</title>
<polygon fill="none" stroke="#000000" points="175.5,-724 74.5,-724 74.5,-688 175.5,-688 175.5,-724"/>
<text text-anchor="middle" x="125" y="-703.2" font-family="Courier,monospace" font-size="11.00" fill="#000000">fncs_init_content</text>
</g>
<!-- \\tomk79\\pickles2\\px2dthelper\\simple_html_dom_node -->
<g id="node3" class="node">
<title>\\tomk79\\pickles2\\px2dthelper\\simple_html_dom_node</title>
<polygon fill="none" stroke="#000000" points="183,-670 67,-670 67,-634 183,-634 183,-670"/>
<text text-anchor="middle" x="125" y="-649.2" font-family="Courier,monospace" font-size="11.00" fill="#000000">simple_html_dom_node</text>
</g>
<!-- \\tomk79\\pickles2\\px2dthelper\\simple_html_dom -->
<g id="node4" class="node">
<title>\\tomk79\\pickles2\\px2dthelper\\simple_html_dom</title>
<polygon fill="none" stroke="#000000" points="170.5,-616 79.5,-616 79.5,-580 170.5,-580 170.5,-616"/>
<text text-anchor="middle" x="125" y="-595.2" font-family="Courier,monospace" font-size="11.00" fill="#000000">simple_html_dom</text>
</g>
<!-- \\tomk79\\pickles2\\px2dthelper\\px2ce_apis -->
<g id="node5" class="node">
<title>\\tomk79\\pickles2\\px2dthelper\\px2ce_apis</title>
<polygon fill="none" stroke="#000000" points="158,-562 92,-562 92,-526 158,-526 158,-562"/>
<text text-anchor="middle" x="125" y="-541.2" font-family="Courier,monospace" font-size="11.00" fill="#000000">px2ce_apis</text>
</g>
<!-- \\tomk79\\pickles2\\px2dthelper\\broccoli_receive_message -->
<g id="node6" class="node">
<title>\\tomk79\\pickles2\\px2dthelper\\broccoli_receive_message</title>
<polygon fill="none" stroke="#000000" points="192.5,-508 57.5,-508 57.5,-472 192.5,-472 192.5,-508"/>
<text text-anchor="middle" x="125" y="-487.2" font-family="Courier,monospace" font-size="11.00" fill="#000000">broccoli_receive_message</text>
</g>
<!-- \\tomk79\\pickles2\\px2dthelper\\document_modules -->
<g id="node7" class="node">
<title>\\tomk79\\pickles2\\px2dthelper\\document_modules</title>
<polygon fill="none" stroke="#000000" points="173,-454 77,-454 77,-418 173,-418 173,-454"/>
<text text-anchor="middle" x="125" y="-433.2" font-family="Courier,monospace" font-size="11.00" fill="#000000">document_modules</text>
</g>
<!-- \\tomk79\\pickles2\\px2dthelper\\px2me_apis -->
<g id="node8" class="node">
<title>\\tomk79\\pickles2\\px2dthelper\\px2me_apis</title>
<polygon fill="none" stroke="#000000" points="158,-400 92,-400 92,-364 158,-364 158,-400"/>
<text text-anchor="middle" x="125" y="-379.2" font-family="Courier,monospace" font-size="11.00" fill="#000000">px2me_apis</text>
</g>
<!-- \\tomk79\\pickles2\\px2dthelper\\fncs_search_sitemap -->
<g id="node9" class="node">
<title>\\tomk79\\pickles2\\px2dthelper\\fncs_search_sitemap</title>
<polygon fill="none" stroke="#000000" points="180.5,-346 69.5,-346 69.5,-310 180.5,-310 180.5,-346"/>
<text text-anchor="middle" x="125" y="-325.2" font-family="Courier,monospace" font-size="11.00" fill="#000000">fncs_search_sitemap</text>
</g>
<!-- \\tomk79\\pickles2\\px2dthelper\\fncs_change_content_editor_mode -->
<g id="node10" class="node">
<title>\\tomk79\\pickles2\\px2dthelper\\fncs_change_content_editor_mode</title>
<polygon fill="none" stroke="#000000" points="210,-292 40,-292 40,-256 210,-256 210,-292"/>
<text text-anchor="middle" x="125" y="-271.2" font-family="Courier,monospace" font-size="11.00" fill="#000000">fncs_change_content_editor_mode</text>
</g>
<!-- \\tomk79\\pickles2\\px2dthelper\\main -->
<g id="node11" class="node">
<title>\\tomk79\\pickles2\\px2dthelper\\main</title>
<polygon fill="none" stroke="#000000" points="152,-238 98,-238 98,-202 152,-202 152,-238"/>
<text text-anchor="middle" x="125" y="-217.2" font-family="Courier,monospace" font-size="11.00" fill="#000000">main</text>
</g>
<!-- \\tomk79\\pickles2\\px2dthelper\\packages -->
<g id="node12" class="node">
<title>\\tomk79\\pickles2\\px2dthelper\\packages</title>
<polygon fill="none" stroke="#000000" points="153,-184 97,-184 97,-148 153,-148 153,-184"/>
<text text-anchor="middle" x="125" y="-163.2" font-family="Courier,monospace" font-size="11.00" fill="#000000">packages</text>
</g>
<!-- \\tomk79\\pickles2\\px2dthelper\\plugins -->
<g id="node13" class="node">
<title>\\tomk79\\pickles2\\px2dthelper\\plugins</title>
<polygon fill="none" stroke="#000000" points="152,-130 98,-130 98,-94 152,-94 152,-130"/>
<text text-anchor="middle" x="125" y="-109.2" font-family="Courier,monospace" font-size="11.00" fill="#000000">plugins</text>
</g>
<!-- \\tomk79\\pickles2\\px2dthelper\\fncs_copy_content -->
<g id="node14" class="node">
<title>\\tomk79\\pickles2\\px2dthelper\\fncs_copy_content</title>
<polygon fill="none" stroke="#000000" points="175.5,-76 74.5,-76 74.5,-40 175.5,-40 175.5,-76"/>
<text text-anchor="middle" x="125" y="-55.2" font-family="Courier,monospace" font-size="11.00" fill="#000000">fncs_copy_content</text>
</g>
</g>
</svg>
